<svg xmlns="http://www.w3.org/2000/svg" width="109.532" height="17.281" viewBox="0 0 109.532 17.281">
  <metadata><?xpacket begin="﻿" id="W5M0MpCehiHzreSzNTczkc9d"?>
<x:xmpmeta xmlns:x="adobe:ns:meta/" x:xmptk="Adobe XMP Core 5.6-c142 79.160924, 2017/07/13-01:06:39        ">
   <rdf:RDF xmlns:rdf="http://www.w3.org/1999/02/22-rdf-syntax-ns#">
      <rdf:Description rdf:about=""/>
   </rdf:RDF>
</x:xmpmeta>
                                                                                                    
                                                                                                    
                                                                                                    
                                                                                                    
                                                                                                    
                                                                                                    
                                                                                                    
                                                                                                    
                                                                                                    
                                                                                                    
                                                                                                    
                                                                                                    
                                                                                                    
                                                                                                    
                                                                                                    
                                                                                                    
                                                                                                    
                                                                                                    
                                                                                                    
                                                                                                    
                           
<?xpacket end="w"?></metadata>
<defs>
    <style>
      .cls-1 {
        fill: #fff;
        fill-rule: evenodd;
      }
    </style>
  </defs>
  <path id="ТЕХНОМАРТ" class="cls-1" d="M189.259,15.218V30.347h2.157V15.218h3.843V13.542h-9.843v1.676h3.843Zm16.2,15.129V28.671h-6V22.425h5.274V20.749h-5.274V15.218h6V13.542H197.29v16.8h8.167Zm3.9,0,3-7.2,3,7.2h2.157l-3.6-8.637,3.246-8.168H214.99l-2.637,6.727-2.636-6.726h-2.168L210.8,21.71l-3.6,8.637h2.156Zm12.419,0V22.671h5.039v7.676h2.156v-16.8h-2.156V21h-5.039V13.542H219.6v16.8h2.168Zm11.178-1.56a4.9,4.9,0,0,0,7.582,0q1.371-1.994,1.371-6.848t-1.371-6.828a4.886,4.886,0,0,0-7.582,0q-1.371,2-1.371,6.828t1.371,6.848h0Zm1.7-12.607a2.26,2.26,0,0,1,2.1-1.443q3,0,3,7.2a13.493,13.493,0,0,1-.914,5.759,2.232,2.232,0,0,1-4.184,0,13.751,13.751,0,0,1-.9-5.759,13.752,13.752,0,0,1,.9-5.759h0Zm11.592,14.167,0.715-12.481h0.128l3.481,10.324h2.157L256.2,17.866h0.117l0.725,12.481H259.2l-0.961-16.8H255.6L251.69,25.062H251.6l-3.914-11.519h-2.635l-0.963,16.8h2.157Zm17.09,0,1.031-4.324h4.9l1.031,4.324h2.168l-4.09-16.8h-3.114l-4.081,16.8h2.156Zm3.434-14.4h0.094l2,8.4h-4.1Zm10.014,14.4V25.179a11.109,11.109,0,0,0,2.356.246,4.168,4.168,0,0,0,3.48-1.312q1.125-1.406,1.125-4.8,0-3.351-1.207-4.711a3.451,3.451,0,0,0-1.629-.99,10.462,10.462,0,0,0-2.836-.3,12.165,12.165,0,0,0-3.457.48V30.347h2.168Zm0-15.481h1.676a2.821,2.821,0,0,1,2.379.914,6.08,6.08,0,0,1,.738,3.527,6.079,6.079,0,0,1-.738,3.527,2.821,2.821,0,0,1-2.379.914h-1.676V14.866Zm12.157,0.351V30.347h2.156V15.218h3.844V13.542h-9.844v1.676h3.844Z" transform="translate(-185.406 -13.313)"/>
</svg>
